HIERARCHY
ROOT Hips
{
	OFFSET 0.00000 0.00000 0.00000
	CHANNELS 6 Xposition Yposition Zposition Zrotation Yrotation Xrotation 
	JOINT LHipJoint
	{
		OFFSET 0 0 0
		CHANNELS 3 Zrotation Yrotation Xrotation
		JOINT LeftHip
		{
			OFFSET 1.76014 -1.80163 0.38499
			CHANNELS 3 Zrotation Yrotation Xrotation
			JOINT LeftKnee
			{
				OFFSET 2.46817 -6.78126 0.00000
				CHANNELS 3 Zrotation Yrotation Xrotation
				JOINT LeftAnkle
				{
					OFFSET 2.79348 -7.67503 0.00000
					CHANNELS 3 Zrotation Yrotation Xrotation
					JOINT LeftToe
					{
						OFFSET 0.09421 -0.25885 1.91403
						CHANNELS 3 Zrotation Yrotation Xrotation
						End Site
						{
							OFFSET 0.00000 -0.00000 0.97975
						}
					}
				}
			}
		}
	}
	JOINT RHipJoint
	{
		OFFSET 0 0 0
		CHANNELS 3 Zrotation Yrotation Xrotation
		JOINT RightHip
		{
			OFFSET -1.77926 -1.80163 0.38499
			CHANNELS 3 Zrotation Yrotation Xrotation
			JOINT RightKnee
			{
				OFFSET -2.51996 -6.92353 0.00000
				CHANNELS 3 Zrotation Yrotation Xrotation
				JOINT RightAnkle
				{
					OFFSET -2.76109 -7.58603 0.00000
					CHANNELS 3 Zrotation Yrotation Xrotation
					JOINT RightToe
					{
						OFFSET -0.08067 -0.22163 1.86812
						CHANNELS 3 Zrotation Yrotation Xrotation
						End Site
						{
							OFFSET -0.00000 -0.00000 0.95558
						}
					}
				}
			}
		}
	}
	JOINT lowerback
	{
		OFFSET 0 0 0
		CHANNELS 3 Zrotation Yrotation Xrotation
		JOINT Chest
		{
			OFFSET 0.05537 1.92033 -0.03713
			CHANNELS 3 Zrotation Yrotation Xrotation
			JOINT Chest2
			{
				OFFSET 0.04452 1.90073 0.10860
				CHANNELS 3 Zrotation Yrotation Xrotation
				JOINT lowerneck
				{
					OFFSET 0 0 0
					CHANNELS 3 Zrotation Yrotation Xrotation
					JOINT Neck
					{
						OFFSET 0.00903 1.74649 0.02074
						CHANNELS 3 Zrotation Yrotation Xrotation
						JOINT Head
						{
							OFFSET -0.08608 1.67844 -0.12081
							CHANNELS 3 Zrotation Yrotation Xrotation
							End Site
							{
								OFFSET -0.03521 1.83380 -0.05059
							}
						}
					}
				}
				JOINT LeftCollar
				{
					OFFSET 0 0 0
					CHANNELS 3 Zrotation Yrotation Xrotation
					JOINT LeftShoulder
					{
						OFFSET 3.28197 0.84325 -0.19106
CHANNELS 3 Zrotation Xrotation Yrotation
						JOINT LeftElbow
						{
OFFSET 0 -5.243180 -0.000000
CHANNELS 3 Zrotation Xrotation Yrotation
							JOINT LeftWrist
							{
OFFSET 0 -2.989990 0.000000
CHANNELS 3 Zrotation Xrotation Yrotation
								JOINT lhand
								{
									OFFSET 0 0 0
CHANNELS 3 Zrotation Xrotation Yrotation
									JOINT LFingers
									{
OFFSET 0 -0.726740 0.000000
CHANNELS 3 Zrotation Xrotation Yrotation
										End Site
										{
OFFSET 0 -0.585920 0.000000
										}
									}
								}
								JOINT LThumb
								{
OFFSET 0 0.000000 0.000000
CHANNELS 3 Zrotation Xrotation Yrotation
									End Site
									{
OFFSET 0 -0.594870 0.594870
									}
								}
							}
						}
					}
				}
				JOINT RightCollar
				{
					OFFSET 0 0 0
					CHANNELS 3 Zrotation Yrotation Xrotation
					JOINT RightShoulder
					{
						OFFSET -3.30963 0.78377 0.14264
CHANNELS 3 Zrotation Xrotation Yrotation
						JOINT RightElbow
						{
OFFSET 0 -5.370450 0.000000
CHANNELS 3 Zrotation Xrotation Yrotation
							JOINT RightWrist
							{
OFFSET 0 -2.927920 0.000000
CHANNELS 3 Zrotation Xrotation Yrotation
								JOINT rhand
								{
									OFFSET 0 0 0
CHANNELS 3 Zrotation Xrotation Yrotation
									JOINT RFingers
									{
OFFSET 0 -0.784500 0.000000
CHANNELS 3 Zrotation Xrotation Yrotation
										End Site
										{
OFFSET 0 -0.632480 0.000000
										}
									}
								}
								JOINT RThumb
								{
OFFSET 0 0.000000 0.000000
CHANNELS 3 Zrotation Xrotation Yrotation
									End Site
									{
OFFSET 0 -0.642140 0.642140
									}
								}
							}
						}
					}
				}
			}
		}
	}
}
MOTION
Frames: 9
Frame Time: 0.008333333333333333
-0.366000 18.142700 0.815800 -2.420400 -2.928100 9.465200 0.000000 0.000000 0.000000 -13.213300 -12.912400 -9.308000 1.205200 6.964800 19.611000 -0.064000 10.598900 -14.061100 0.904000 -6.059200 -16.956200 0.000000 0.000000 0.000000 23.344200 11.152300 -9.127400 -0.778000 -5.631700 15.719400 0.094200 -10.515100 -13.402900 -0.021300 0.943100 -2.592300 -0.057800 -0.472100 -0.753200 2.887100 -0.580500 -2.601800 3.007500 -0.257200 -2.217500 3.654500 -1.746400 -8.356700 -9.138500 -2.078600 5.874300 -3.472500 -1.344700 2.972400 0.000000 0.000000 0.000000 11.941500 8.473600 -44.399500 16.794300 -26.585800 3.994800 -1.379500 11.854900 -11.484800 0.000000 0.000000 0.000000 -7.125000 0.000000 0.000000 -24.722400 40.133500 -3.193000 0.000000 0.000000 0.000000 -7.990500 12.009700 20.472300 -22.488700 -33.524900 -6.853800 2.400000 32.217900 -16.811100 0.000000 0.000000 0.000000 7.125000 0.000000 -0.000000 19.844800 13.807100 15.514700
-0.338715 18.147137 0.791176 -2.330610 -3.235096 9.647264 0.000000 0.000000 0.000000 -13.402635 -13.240826 -9.413329 1.206560 6.968771 19.622730 -0.092278 11.028622 -14.251362 0.861430 -5.918596 -16.548302 0.000000 0.000000 0.000000 23.071701 11.283447 -9.384820 -0.768771 -5.598802 15.624780 0.110306 -10.518324 -13.112998 -0.034003 1.189177 -3.269467 0.062652 -0.485248 -0.683930 2.904128 -0.594169 -2.678329 2.959052 -0.265106 -2.335645 3.633471 -1.777013 -8.290083 -9.187346 -2.122229 5.739892 -3.482994 -1.365134 2.918124 0.000000 0.000000 0.000000 11.812696 8.811945 -46.097824 17.908322 -28.039162 4.506290 -1.139592 12.336721 -11.500768 0.000000 0.000000 0.000000 -7.125000 0.000000 0.000000 -24.532021 40.169580 -3.140911 0.000000 0.000000 0.000000 -8.098335 12.073826 20.468664 -22.277476 -33.289154 -6.737481 1.921508 30.744289 -16.364870 0.000000 0.000000 0.000000 7.125000 0.000000 0.000000 19.583608 14.216301 15.100579
-0.318120 18.148741 0.771296 -2.582724 -3.487338 9.796415 0.000000 0.000000 0.000000 -13.179325 -13.485330 -9.491634 1.209456 6.976743 19.646396 -0.113024 11.374068 -14.451533 0.866063 -5.933714 -16.592319 0.000000 0.000000 0.000000 23.224868 11.440992 -9.435555 -0.742307 -5.503782 15.351294 0.123555 -10.484791 -12.806208 -0.046178 1.386110 -3.811740 0.416684 -0.464879 -0.862275 3.008432 -0.568173 -2.617577 2.864497 -0.259777 -2.176447 3.583569 -1.778214 -8.191076 -9.139790 -2.129569 5.599986 -3.457029 -1.363304 2.860626 0.000000 0.000000 0.000000 11.725039 9.073203 -47.769767 19.137419 -29.588632 5.098757 -0.536894 12.471032 -11.143496 0.000000 0.000000 0.000000 -7.125000 0.000000 0.000000 -23.916772 39.897152 -3.223385 0.000000 0.000000 0.000000 -7.957592 11.940902 19.621888 -21.998412 -32.975189 -6.584993 2.052082 30.284133 -16.216297 0.000000 0.000000 0.000000 7.125000 0.000000 0.000000 19.680040 14.359382 15.120828
-0.299442 18.155049 0.749881 -2.304826 -3.783802 9.878430 0.000000 0.000000 0.000000 -13.569985 -13.671660 -9.349090 1.172056 6.871852 19.336353 -0.141385 11.716532 -14.534493 0.786497 -5.660752 -15.803453 0.000000 0.000000 0.000000 22.784502 11.576975 -9.689029 -0.752481 -5.540652 15.457259 0.129912 -10.440058 -12.606414 -0.076505 1.784346 -4.910025 0.076869 -0.481997 -0.802246 3.015250 -0.590782 -2.654119 3.064320 -0.263450 -2.243592 3.698986 -1.706056 -7.953037 -8.923552 -2.080852 5.161691 -3.774482 -1.297900 2.987596 0.000000 0.000000 0.000000 11.445124 9.394001 -48.933582 20.399651 -31.120373 5.736732 -0.422826 11.627447 -11.382188 0.000000 0.000000 0.000000 -7.125000 0.000000 0.000000 -23.904080 40.125495 -3.076817 0.000000 0.000000 0.000000 -7.817103 11.683582 18.770316 -21.424547 -32.320434 -6.275410 1.836506 30.239346 -16.027498 0.000000 0.000000 0.000000 7.125000 0.000000 0.000000 19.560710 14.532366 14.939546
-0.279706 18.159550 0.728858 -2.262844 -3.941915 9.905552 0.000000 0.000000 0.000000 -13.713461 -13.949165 -9.112932 1.135003 6.766024 19.024122 -0.189648 12.183158 -14.506466 0.800619 -5.711025 -15.948174 0.000000 0.000000 0.000000 22.621903 11.771868 -9.755430 -0.751856 -5.538339 15.450631 0.126155 -10.408890 -12.627830 -0.045484 1.374268 -3.779238 -0.002639 -0.505096 -0.813414 3.071899 -0.622797 -2.602566 3.167374 -0.278047 -2.181266 3.716464 -1.615537 -7.770897 -8.860020 -1.970889 5.028140 -3.741420 -1.235017 2.914988 0.000000 0.000000 0.000000 11.059576 9.631228 -49.415963 21.680494 -32.613906 6.412923 -0.276247 10.497853 -11.350509 0.000000 0.000000 0.000000 -7.125000 0.000000 0.000000 -23.773129 40.109670 -3.067538 0.000000 0.000000 0.000000 -7.636944 11.417155 17.879689 -20.881817 -31.690038 -5.987780 1.535650 30.509723 -15.724516 0.000000 0.000000 0.000000 7.125000 0.000000 0.000000 19.397080 14.811131 14.674591
-0.258439 18.161744 0.703995 -2.259107 -3.834339 10.037079 0.000000 0.000000 0.000000 -13.724602 -14.169864 -9.252456 1.122552 6.730216 18.918395 -0.200731 12.273765 -14.474524 0.807427 -5.734508 -16.015957 0.000000 0.000000 0.000000 22.513854 11.776469 -9.978274 -0.751122 -5.535462 15.442464 0.140088 -10.509155 -12.522742 -0.058346 1.556319 -4.281180 0.092960 -0.524227 -0.775437 3.105862 -0.644397 -2.687557 3.150289 -0.289036 -2.289712 3.751224 -1.583381 -7.527648 -8.860611 -1.930759 4.975398 -3.738523 -1.208651 2.853280 0.000000 0.000000 0.000000 10.474574 9.734141 -49.342546 22.531968 -33.572987 6.877772 0.273831 9.956143 -11.294362 0.000000 0.000000 0.000000 -7.125000 0.000000 0.000000 -23.302169 40.106799 -3.000058 0.000000 0.000000 0.000000 -7.435355 11.331357 17.133085 -20.341873 -31.051953 -5.706632 1.201219 30.945629 -15.184541 0.000000 0.000000 0.000000 7.125000 0.000000 0.000000 19.233209 15.312884 14.313324
-0.238160 18.163524 0.678794 -2.062532 -3.826154 9.945955 0.000000 0.000000 0.000000 -14.013342 -14.121640 -9.205530 1.104055 6.676213 18.759664 -0.222244 12.305770 -14.156826 0.876257 -5.967831 -16.691158 0.000000 0.000000 0.000000 22.216336 11.856301 -10.073234 -0.769541 -5.601444 15.632311 0.125708 -10.377726 -12.583068 -0.029629 1.105644 -3.039605 -0.118754 -0.537178 -0.704704 3.117740 -0.665109 -2.548327 3.281528 -0.296746 -2.182527 3.738503 -1.526671 -7.574824 -8.777733 -1.856034 5.024589 -3.706110 -1.170434 2.884518 0.000000 0.000000 0.000000 9.702048 9.232337 -48.740520 22.829467 -33.901771 7.042923 0.726513 9.683467 -11.041670 0.000000 0.000000 0.000000 -7.125000 0.000000 0.000000 -22.846410 39.914043 -3.049458 0.000000 0.000000 0.000000 -7.240959 10.778183 16.157382 -19.648748 -30.216718 -5.353488 1.066308 31.588636 -15.148534 0.000000 0.000000 0.000000 7.125000 0.000000 0.000000 19.149833 15.343798 14.229681
-0.213395 18.167155 0.651357 -2.031531 -3.655260 9.930274 0.000000 0.000000 0.000000 -14.069139 -14.097075 -9.414405 1.113928 6.705159 18.844692 -0.207287 12.060675 -13.983183 0.860852 -5.916600 -16.542665 0.000000 0.000000 0.000000 22.104429 11.802753 -10.133780 -0.764324 -5.582985 15.579088 0.155149 -10.688716 -12.535706 -0.066716 1.666996 -4.586241 0.003127 -0.500061 -0.658031 3.101260 -0.615411 -2.492758 3.195025 -0.275002 -2.155687 3.719236 -1.558107 -7.477748 -8.691000 -1.897110 5.075242 -3.672072 -1.186751 2.880104 0.000000 0.000000 0.000000 9.023424 8.660399 -48.176259 23.090483 -34.187634 7.189112 0.436246 9.149178 -12.072066 0.000000 0.000000 0.000000 -7.125000 0.000000 0.000000 -23.432045 40.835428 -2.567499 0.000000 0.000000 0.000000 -6.924490 10.516316 15.316165 -19.162549 -29.620006 -5.110987 1.032368 32.040713 -14.624284 0.000000 0.000000 0.000000 7.125000 0.000000 0.000000 19.177567 15.838444 14.034426
-0.193952 18.170560 0.626421 -2.126718 -3.478183 9.883028 0.000000 0.000000 0.000000 -13.984347 -13.909967 -9.593403 1.116056 6.711265 18.862691 -0.198868 11.823324 -13.712666 0.950549 -6.208846 -17.391541 0.000000 0.000000 0.000000 22.153649 11.928011 -9.980771 -0.747682 -5.523170 15.406952 0.154095 -10.810051 -12.769204 -0.022785 0.959407 -2.637267 0.162563 -0.456404 -0.521033 3.144063 -0.552361 -2.493972 3.150233 -0.245520 -2.238540 3.771304 -1.574312 -7.297533 -8.695183 -1.918790 5.110420 -3.680642 -1.193346 2.855866 0.000000 0.000000 0.000000 8.125610 8.054868 -47.018973 22.584743 -33.631528 6.906997 1.368573 9.764004 -12.052903 0.000000 0.000000 0.000000 -7.125000 0.000000 0.000000 -22.650864 40.903850 -2.429998 0.000000 0.000000 0.000000 -6.648000 10.276256 14.563426 -18.592395 -28.908939 -4.832240 0.940438 32.181896 -14.168489 0.000000 0.000000 0.000000 7.125000 0.000000 0.000000 19.162345 16.266964 13.831808
